<svg width="1480" height="810" xmlns="http://www.w3.org/2000/svg" xmlns:xlink="http://www.w3.org/1999/xlink"><rect x="0" y="0" width="1480" height="810" rx="5" ry="5" style="fill:#282d35"/><circle cx="20" cy="20" r="7" style="fill:#ff5f58"/><circle cx="43" cy="20" r="7" style="fill:#ffbd2e"/><circle cx="66" cy="20" r="7" style="fill:#18c132"/><g transform="translate(20,60)"><g style="animation-duration:9.95s;animation-iteration-count:infinite;animation-name:k;animation-timing-function:steps(1,end);font-family:Monaco,Consolas,Menlo,'Bitstream Vera Sans Mono','Powerline Symbols',monospace;font-size:20px"><style>@keyframes k {19.830%{transform:translateX(-0px)}20.831%{transform:translateX(-1480px)}21.920%{transform:translateX(-2960px)}23.771%{transform:translateX(-4440px)}29.632%{transform:translateX(-5920px)}30.552%{transform:translateX(-7400px)}36.247%{transform:translateX(-8880px)}37.315%{transform:translateX(-10360px)}38.203%{transform:translateX(-11840px)}39.833%{transform:translateX(-13320px)}40.808%{transform:translateX(-14800px)}41.989%{transform:translateX(-16280px)}43.669%{transform:translateX(-17760px)}49.400%{transform:translateX(-19240px)}58.651%{transform:translateX(-20720px)}84.543%{transform:translateX(-22200px)}97.870%{transform:translateX(-23680px)}100.000%{transform:translateX(-25160px)}}.a{fill:#e5e5e5}</style><g transform="translate(0)"><text x="0" y="0" class="a">b</text></g><g transform="translate(1480)"><text x="0" y="0" class="a">bo</text></g><g transform="translate(2960)"><text x="0" y="0" class="a">box</text></g><g transform="translate(4440)"><text x="0" y="0" class="a">box</text></g><g transform="translate(5920)"><text x="0" y="0" class="a">box</text><text x="48" y="0" class="a">-</text></g><g transform="translate(7400)"><text x="0" y="0" class="a">box</text><text x="48" y="0" class="a">--</text></g><g transform="translate(8880)"><text x="0" y="0" class="a">box</text><text x="48" y="0" class="a">--v</text></g><g transform="translate(10360)"><text x="0" y="0" class="a">box</text><text x="48" y="0" class="a">--ve</text></g><g transform="translate(11840)"><text x="0" y="0" class="a">box</text><text x="48" y="0" class="a">--ver</text></g><g transform="translate(13320)"><text x="0" y="0" class="a">box</text><text x="48" y="0" class="a">--vers</text></g><g transform="translate(14800)"><text x="0" y="0" class="a">box</text><text x="48" y="0" class="a">--versi</text></g><g transform="translate(16280)"><text x="0" y="0" class="a">box</text><text x="48" y="0" class="a">--versio</text></g><g transform="translate(17760)"><text x="0" y="0" class="a">box</text><text x="48" y="0" class="a">--version</text></g><g transform="translate(19240)"><text x="0" y="0" class="a">box</text><text x="48" y="0" class="a">--version</text></g><g transform="translate(20720)"><text x="0" y="0" class="a">box</text><text x="48" y="0" class="a">--version</text><text x="0" y="25" class="a">@box/cli/4.2.0</text><text x="180" y="25" class="a">linux-x64</text><text x="300" y="25" class="a">node-v18.20.8</text></g><g transform="translate(22200)"><text x="0" y="0" class="a">box</text><text x="48" y="0" class="a">--version</text><text x="0" y="25" class="a">@box/cli/4.2.0</text><text x="180" y="25" class="a">linux-x64</text><text x="300" y="25" class="a">node-v18.20.8</text><text x="0" y="50" class="a">c</text></g><g transform="translate(23680)"><text x="0" y="0" class="a">box</text><text x="48" y="0" class="a">--version</text><text x="0" y="25" class="a">@box/cli/4.2.0</text><text x="180" y="25" class="a">linux-x64</text><text x="300" y="25" class="a">node-v18.20.8</text></g><g transform="translate(25160)"><text x="0" y="0" class="a">box</text><text x="48" y="0" class="a">--version</text><text x="0" y="25" class="a">@box/cli/4.2.0</text><text x="180" y="25" class="a">linux-x64</text><text x="300" y="25" class="a">node-v18.20.8</text></g></g></g></svg>