<svg width="1480" height="810" xmlns="http://www.w3.org/2000/svg" xmlns:xlink="http://www.w3.org/1999/xlink"><rect x="0" y="0" width="1480" height="810" rx="5" ry="5" style="fill:#282d35"/><circle cx="20" cy="20" r="7" style="fill:#ff5f58"/><circle cx="43" cy="20" r="7" style="fill:#ffbd2e"/><circle cx="66" cy="20" r="7" style="fill:#18c132"/><g transform="translate(20,60)"><g style="animation-duration:17.66s;animation-iteration-count:infinite;animation-name:k;animation-timing-function:steps(1,end);font-family:Monaco,Consolas,Menlo,'Bitstream Vera Sans Mono','Powerline Symbols',monospace;font-size:20px"><style>@keyframes k {49.388%{transform:translateX(-0px)}50.102%{transform:translateX(-1480px)}54.807%{transform:translateX(-2960px)}57.322%{transform:translateX(-4440px)}60.670%{transform:translateX(-5920px)}63.895%{transform:translateX(-7400px)}65.650%{transform:translateX(-8880px)}66.770%{transform:translateX(-10360px)}68.049%{transform:translateX(-11840px)}71.594%{transform:translateX(-13320px)}76.281%{transform:translateX(-14800px)}77.809%{transform:translateX(-16280px)}78.992%{transform:translateX(-17760px)}80.222%{transform:translateX(-19240px)}81.492%{transform:translateX(-20720px)}82.154%{transform:translateX(-22200px)}84.430%{transform:translateX(-23680px)}84.841%{transform:translateX(-25160px)}85.596%{transform:translateX(-26640px)}86.615%{transform:translateX(-28120px)}89.401%{transform:translateX(-29600px)}91.003%{transform:translateX(-31080px)}91.069%{transform:translateX(-32560px)}91.070%{transform:translateX(-34040px)}91.070%{transform:translateX(-35520px)}100.000%{transform:translateX(-37000px)}}.a{fill:#e5e5e5}</style><g transform="translate(0)"><text x="0" y="0" class="a">b</text></g><g transform="translate(1480)"><text x="0" y="0" class="a">bo</text></g><g transform="translate(2960)"><text x="0" y="0" class="a">box</text></g><g transform="translate(4440)"><text x="0" y="0" class="a">box</text></g><g transform="translate(5920)"><text x="0" y="0" class="a">box</text><text x="48" y="0" class="a">u</text></g><g transform="translate(7400)"><text x="0" y="0" class="a">box</text><text x="48" y="0" class="a">us</text></g><g transform="translate(8880)"><text x="0" y="0" class="a">box</text><text x="48" y="0" class="a">use</text></g><g transform="translate(10360)"><text x="0" y="0" class="a">box</text><text x="48" y="0" class="a">user</text></g><g transform="translate(11840)"><text x="0" y="0" class="a">box</text><text x="48" y="0" class="a">users</text></g><g transform="translate(13320)"><text x="0" y="0" class="a">box</text><text x="48" y="0" class="a">users:</text></g><g transform="translate(14800)"><text x="0" y="0" class="a">box</text><text x="48" y="0" class="a">users:g</text></g><g transform="translate(16280)"><text x="0" y="0" class="a">box</text><text x="48" y="0" class="a">users:ge</text></g><g transform="translate(17760)"><text x="0" y="0" class="a">box</text><text x="48" y="0" class="a">users:get</text></g><g transform="translate(19240)"><text x="0" y="0" class="a">box</text><text x="48" y="0" class="a">users:get</text></g><g transform="translate(20720)"><text x="0" y="0" class="a">box</text><text x="48" y="0" class="a">users:get</text><text x="168" y="0" class="a">-</text></g><g transform="translate(22200)"><text x="0" y="0" class="a">box</text><text x="48" y="0" class="a">users:get</text><text x="168" y="0" class="a">--</text></g><g transform="translate(23680)"><text x="0" y="0" class="a">box</text><text x="48" y="0" class="a">users:get</text><text x="168" y="0" class="a">--h</text></g><g transform="translate(25160)"><text x="0" y="0" class="a">box</text><text x="48" y="0" class="a">users:get</text><text x="168" y="0" class="a">--he</text></g><g transform="translate(26640)"><text x="0" y="0" class="a">box</text><text x="48" y="0" class="a">users:get</text><text x="168" y="0" class="a">--hel</text></g><g transform="translate(28120)"><text x="0" y="0" class="a">box</text><text x="48" y="0" class="a">users:get</text><text x="168" y="0" class="a">--help</text></g><g transform="translate(29600)"><text x="0" y="0" class="a">box</text><text x="48" y="0" class="a">users:get</text><text x="168" y="0" class="a">--help</text></g><g transform="translate(31080)"><text x="0" y="0" class="a">box</text><text x="48" y="0" class="a">users:get</text><text x="168" y="0" class="a">--help</text><text x="0" y="25" class="a">Get</text><text x="48" y="25" class="a">information</text><text x="192" y="25" class="a">about</text><text x="264" y="25" class="a">a</text><text x="288" y="25" class="a">Box</text><text x="336" y="25" class="a">user</text></g><g transform="translate(32560)"><text x="0" y="0" class="a">box</text><text x="48" y="0" class="a">users:get</text><text x="168" y="0" class="a">--help</text><text x="0" y="25" class="a">Get</text><text x="48" y="25" class="a">information</text><text x="192" y="25" class="a">about</text><text x="264" y="25" class="a">a</text><text x="288" y="25" class="a">Box</text><text x="336" y="25" class="a">user</text><text x="0" y="75" class="a">USAGE</text><text x="24" y="100" class="a">$</text><text x="48" y="100" class="a">box</text><text x="96" y="100" class="a">users:get</text><text x="216" y="100" class="a">[ID]</text><text x="276" y="100" class="a">[-t</text><text x="324" y="100" class="a">&lt;value>]</text><text x="432" y="100" class="a">[--as-user</text><text x="564" y="100" class="a">&lt;value>]</text><text x="672" y="100" class="a">[--no-color]</text><text x="828" y="100" class="a">[--json</text><text x="924" y="100" class="a">|</text><text x="948" y="100" class="a">--csv]</text><text x="1032" y="100" class="a">[-s</text><text x="1080" y="100" class="a">|</text><text x="1104" y="100" class="a">--save-to-file-path</text><text x="48" y="125" class="a">&lt;value>]</text><text x="156" y="125" class="a">[--fields</text><text x="276" y="125" class="a">&lt;value>]</text><text x="384" y="125" class="a">[--bulk-file-path</text><text x="600" y="125" class="a">&lt;value>]</text><text x="708" y="125" class="a">[-h]</text><text x="768" y="125" class="a">[-v]</text><text x="828" y="125" class="a">[-y]</text><text x="888" y="125" class="a">[-q]</text><text x="0" y="175" class="a">ARGUMENTS</text><text x="24" y="200" class="a">ID</text><text x="72" y="200" class="a">[default:</text><text x="192" y="200" class="a">me]</text><text x="240" y="200" class="a">ID</text><text x="276" y="200" class="a">of</text><text x="312" y="200" class="a">the</text><text x="360" y="200" class="a">user</text><text x="420" y="200" class="a">to</text><text x="456" y="200" class="a">get;</text><text x="516" y="200" class="a">defaults</text><text x="624" y="200" class="a">to</text><text x="660" y="200" class="a">the</text><text x="708" y="200" class="a">current</text><text x="804" y="200" class="a">user</text><text x="0" y="250" class="a">FLAGS</text><text x="24" y="275" class="a">-h,</text><text x="72" y="275" class="a">--help</text><text x="420" y="275" class="a">Show</text><text x="480" y="275" class="a">CLI</text><text x="528" y="275" class="a">help</text><text x="24" y="300" class="a">-q,</text><text x="72" y="300" class="a">--quiet</text><text x="420" y="300" class="a">Suppress</text><text x="528" y="300" class="a">any</text><text x="576" y="300" class="a">non-error</text><text x="696" y="300" class="a">output</text><text x="780" y="300" class="a">to</text><text x="816" y="300" class="a">stderr</text><text x="24" y="325" class="a">-s,</text><text x="72" y="325" class="a">--save</text><text x="420" y="325" class="a">Save</text><text x="480" y="325" class="a">report</text><text x="564" y="325" class="a">to</text><text x="600" y="325" class="a">default</text><text x="696" y="325" class="a">reports</text><text x="792" y="325" class="a">folder</text><text x="876" y="325" class="a">on</text><text x="912" y="325" class="a">disk</text><text x="24" y="350" class="a">-t,</text><text x="72" y="350" class="a">--token=&lt;value></text><text x="420" y="350" class="a">Provide</text><text x="516" y="350" class="a">a</text><text x="540" y="350" class="a">token</text><text x="612" y="350" class="a">to</text><text x="648" y="350" class="a">perform</text><text x="744" y="350" class="a">this</text><text x="804" y="350" class="a">call</text><text x="24" y="375" class="a">-v,</text><text x="72" y="375" class="a">--verbose</text><text x="420" y="375" class="a">Show</text><text x="480" y="375" class="a">verbose</text><text x="576" y="375" class="a">output,</text><text x="672" y="375" class="a">which</text><text x="744" y="375" class="a">can</text><text x="792" y="375" class="a">be</text><text x="828" y="375" class="a">helpful</text><text x="924" y="375" class="a">for</text><text x="972" y="375" class="a">debugging</text><text x="24" y="400" class="a">-y,</text><text x="72" y="400" class="a">--yes</text><text x="420" y="400" class="a">Automatically</text><text x="588" y="400" class="a">respond</text><text x="684" y="400" class="a">yes</text><text x="732" y="400" class="a">to</text><text x="768" y="400" class="a">all</text><text x="816" y="400" class="a">confirmation</text><text x="972" y="400" class="a">prompts</text><text x="72" y="425" class="a">--as-user=&lt;value></text><text x="420" y="425" class="a">Provide</text><text x="516" y="425" class="a">an</text><text x="552" y="425" class="a">ID</text><text x="588" y="425" class="a">for</text><text x="636" y="425" class="a">a</text><text x="660" y="425" class="a">user</text><text x="72" y="450" class="a">--bulk-file-path=&lt;value></text><text x="420" y="450" class="a">File</text><text x="480" y="450" class="a">path</text><text x="540" y="450" class="a">to</text><text x="576" y="450" class="a">bulk</text><text x="636" y="450" class="a">.csv</text><text x="696" y="450" class="a">or</text><text x="732" y="450" class="a">.json</text><text x="804" y="450" class="a">objects</text><text x="72" y="475" class="a">--csv</text><text x="420" y="475" class="a">Output</text><text x="504" y="475" class="a">formatted</text><text x="624" y="475" class="a">CSV</text><text x="72" y="500" class="a">--fields=</text></g><g transform="translate(34040)"><text x="0" y="0" class="a">Get</text><text x="48" y="0" class="a">information</text><text x="192" y="0" class="a">about</text><text x="264" y="0" class="a">a</text><text x="288" y="0" class="a">Box</text><text x="336" y="0" class="a">user</text><text x="0" y="50" class="a">USAGE</text><text x="24" y="75" class="a">$</text><text x="48" y="75" class="a">box</text><text x="96" y="75" class="a">users:get</text><text x="216" y="75" class="a">[ID]</text><text x="276" y="75" class="a">[-t</text><text x="324" y="75" class="a">&lt;value>]</text><text x="432" y="75" class="a">[--as-user</text><text x="564" y="75" class="a">&lt;value>]</text><text x="672" y="75" class="a">[--no-color]</text><text x="828" y="75" class="a">[--json</text><text x="924" y="75" class="a">|</text><text x="948" y="75" class="a">--csv]</text><text x="1032" y="75" class="a">[-s</text><text x="1080" y="75" class="a">|</text><text x="1104" y="75" class="a">--save-to-file-path</text><text x="48" y="100" class="a">&lt;value>]</text><text x="156" y="100" class="a">[--fields</text><text x="276" y="100" class="a">&lt;value>]</text><text x="384" y="100" class="a">[--bulk-file-path</text><text x="600" y="100" class="a">&lt;value>]</text><text x="708" y="100" class="a">[-h]</text><text x="768" y="100" class="a">[-v]</text><text x="828" y="100" class="a">[-y]</text><text x="888" y="100" class="a">[-q]</text><text x="0" y="150" class="a">ARGUMENTS</text><text x="24" y="175" class="a">ID</text><text x="72" y="175" class="a">[default:</text><text x="192" y="175" class="a">me]</text><text x="240" y="175" class="a">ID</text><text x="276" y="175" class="a">of</text><text x="312" y="175" class="a">the</text><text x="360" y="175" class="a">user</text><text x="420" y="175" class="a">to</text><text x="456" y="175" class="a">get;</text><text x="516" y="175" class="a">defaults</text><text x="624" y="175" class="a">to</text><text x="660" y="175" class="a">the</text><text x="708" y="175" class="a">current</text><text x="804" y="175" class="a">user</text><text x="0" y="225" class="a">FLAGS</text><text x="24" y="250" class="a">-h,</text><text x="72" y="250" class="a">--help</text><text x="420" y="250" class="a">Show</text><text x="480" y="250" class="a">CLI</text><text x="528" y="250" class="a">help</text><text x="24" y="275" class="a">-q,</text><text x="72" y="275" class="a">--quiet</text><text x="420" y="275" class="a">Suppress</text><text x="528" y="275" class="a">any</text><text x="576" y="275" class="a">non-error</text><text x="696" y="275" class="a">output</text><text x="780" y="275" class="a">to</text><text x="816" y="275" class="a">stderr</text><text x="24" y="300" class="a">-s,</text><text x="72" y="300" class="a">--save</text><text x="420" y="300" class="a">Save</text><text x="480" y="300" class="a">report</text><text x="564" y="300" class="a">to</text><text x="600" y="300" class="a">default</text><text x="696" y="300" class="a">reports</text><text x="792" y="300" class="a">folder</text><text x="876" y="300" class="a">on</text><text x="912" y="300" class="a">disk</text><text x="24" y="325" class="a">-t,</text><text x="72" y="325" class="a">--token=&lt;value></text><text x="420" y="325" class="a">Provide</text><text x="516" y="325" class="a">a</text><text x="540" y="325" class="a">token</text><text x="612" y="325" class="a">to</text><text x="648" y="325" class="a">perform</text><text x="744" y="325" class="a">this</text><text x="804" y="325" class="a">call</text><text x="24" y="350" class="a">-v,</text><text x="72" y="350" class="a">--verbose</text><text x="420" y="350" class="a">Show</text><text x="480" y="350" class="a">verbose</text><text x="576" y="350" class="a">output,</text><text x="672" y="350" class="a">which</text><text x="744" y="350" class="a">can</text><text x="792" y="350" class="a">be</text><text x="828" y="350" class="a">helpful</text><text x="924" y="350" class="a">for</text><text x="972" y="350" class="a">debugging</text><text x="24" y="375" class="a">-y,</text><text x="72" y="375" class="a">--yes</text><text x="420" y="375" class="a">Automatically</text><text x="588" y="375" class="a">respond</text><text x="684" y="375" class="a">yes</text><text x="732" y="375" class="a">to</text><text x="768" y="375" class="a">all</text><text x="816" y="375" class="a">confirmation</text><text x="972" y="375" class="a">prompts</text><text x="72" y="400" class="a">--as-user=&lt;value></text><text x="420" y="400" class="a">Provide</text><text x="516" y="400" class="a">an</text><text x="552" y="400" class="a">ID</text><text x="588" y="400" class="a">for</text><text x="636" y="400" class="a">a</text><text x="660" y="400" class="a">user</text><text x="72" y="425" class="a">--bulk-file-path=&lt;value></text><text x="420" y="425" class="a">File</text><text x="480" y="425" class="a">path</text><text x="540" y="425" class="a">to</text><text x="576" y="425" class="a">bulk</text><text x="636" y="425" class="a">.csv</text><text x="696" y="425" class="a">or</text><text x="732" y="425" class="a">.json</text><text x="804" y="425" class="a">objects</text><text x="72" y="450" class="a">--csv</text><text x="420" y="450" class="a">Output</text><text x="504" y="450" class="a">formatted</text><text x="624" y="450" class="a">CSV</text><text x="72" y="475" class="a">--fields=&lt;value></text><text x="420" y="475" class="a">Comma</text><text x="492" y="475" class="a">separated</text><text x="612" y="475" class="a">list</text><text x="672" y="475" class="a">of</text><text x="708" y="475" class="a">fields</text><text x="792" y="475" class="a">to</text><text x="828" y="475" class="a">show</text><text x="72" y="500" class="a">--json</text><text x="420" y="500" class="a">Output</text><text x="504" y="500" class="a">formatted</text><text x="624" y="500" class="a">JSON</text><text x="72" y="525" class="a">--no-color</text><text x="420" y="525" class="a">Turn</text><text x="480" y="525" class="a">off</text><text x="528" y="525" class="a">colors</text><text x="612" y="525" class="a">for</text><text x="660" y="525" class="a">logging</text><text x="72" y="550" class="a">--save-to-file-path=&lt;value></text><text x="420" y="550" class="a">Override</text><text x="528" y="550" class="a">default</text><text x="624" y="550" class="a">file</text><text x="684" y="550" class="a">path</text><text x="744" y="550" class="a">to</text><text x="780" y="550" class="a">save</text><text x="840" y="550" class="a">report</text><text x="0" y="600" class="a">DESCRIPTION</text><text x="24" y="625" class="a">Get</text><text x="72" y="625" class="a">information</text><text x="216" y="625" class="a">about</text><text x="288" y="625" class="a">a</text><text x="312" y="625" class="a">Box</text><text x="360" y="625" class="a">user</text><text x="0" y="675" class="a">EXAMPLES</text><text x="24" y="700" class="a">$</text><text x="48" y="700" class="a">box</text><text x="96" y="700" class="a">users:get</text><text x="216" y="700" class="a">33333</text></g><g transform="translate(35520)"><text x="0" y="25" class="a">USAGE</text><text x="24" y="50" class="a">$</text><text x="48" y="50" class="a">box</text><text x="96" y="50" class="a">users:get</text><text x="216" y="50" class="a">[ID]</text><text x="276" y="50" class="a">[-t</text><text x="324" y="50" class="a">&lt;value>]</text><text x="432" y="50" class="a">[--as-user</text><text x="564" y="50" class="a">&lt;value>]</text><text x="672" y="50" class="a">[--no-color]</text><text x="828" y="50" class="a">[--json</text><text x="924" y="50" class="a">|</text><text x="948" y="50" class="a">--csv]</text><text x="1032" y="50" class="a">[-s</text><text x="1080" y="50" class="a">|</text><text x="1104" y="50" class="a">--save-to-file-path</text><text x="48" y="75" class="a">&lt;value>]</text><text x="156" y="75" class="a">[--fields</text><text x="276" y="75" class="a">&lt;value>]</text><text x="384" y="75" class="a">[--bulk-file-path</text><text x="600" y="75" class="a">&lt;value>]</text><text x="708" y="75" class="a">[-h]</text><text x="768" y="75" class="a">[-v]</text><text x="828" y="75" class="a">[-y]</text><text x="888" y="75" class="a">[-q]</text><text x="0" y="125" class="a">ARGUMENTS</text><text x="24" y="150" class="a">ID</text><text x="72" y="150" class="a">[default:</text><text x="192" y="150" class="a">me]</text><text x="240" y="150" class="a">ID</text><text x="276" y="150" class="a">of</text><text x="312" y="150" class="a">the</text><text x="360" y="150" class="a">user</text><text x="420" y="150" class="a">to</text><text x="456" y="150" class="a">get;</text><text x="516" y="150" class="a">defaults</text><text x="624" y="150" class="a">to</text><text x="660" y="150" class="a">the</text><text x="708" y="150" class="a">current</text><text x="804" y="150" class="a">user</text><text x="0" y="200" class="a">FLAGS</text><text x="24" y="225" class="a">-h,</text><text x="72" y="225" class="a">--help</text><text x="420" y="225" class="a">Show</text><text x="480" y="225" class="a">CLI</text><text x="528" y="225" class="a">help</text><text x="24" y="250" class="a">-q,</text><text x="72" y="250" class="a">--quiet</text><text x="420" y="250" class="a">Suppress</text><text x="528" y="250" class="a">any</text><text x="576" y="250" class="a">non-error</text><text x="696" y="250" class="a">output</text><text x="780" y="250" class="a">to</text><text x="816" y="250" class="a">stderr</text><text x="24" y="275" class="a">-s,</text><text x="72" y="275" class="a">--save</text><text x="420" y="275" class="a">Save</text><text x="480" y="275" class="a">report</text><text x="564" y="275" class="a">to</text><text x="600" y="275" class="a">default</text><text x="696" y="275" class="a">reports</text><text x="792" y="275" class="a">folder</text><text x="876" y="275" class="a">on</text><text x="912" y="275" class="a">disk</text><text x="24" y="300" class="a">-t,</text><text x="72" y="300" class="a">--token=&lt;value></text><text x="420" y="300" class="a">Provide</text><text x="516" y="300" class="a">a</text><text x="540" y="300" class="a">token</text><text x="612" y="300" class="a">to</text><text x="648" y="300" class="a">perform</text><text x="744" y="300" class="a">this</text><text x="804" y="300" class="a">call</text><text x="24" y="325" class="a">-v,</text><text x="72" y="325" class="a">--verbose</text><text x="420" y="325" class="a">Show</text><text x="480" y="325" class="a">verbose</text><text x="576" y="325" class="a">output,</text><text x="672" y="325" class="a">which</text><text x="744" y="325" class="a">can</text><text x="792" y="325" class="a">be</text><text x="828" y="325" class="a">helpful</text><text x="924" y="325" class="a">for</text><text x="972" y="325" class="a">debugging</text><text x="24" y="350" class="a">-y,</text><text x="72" y="350" class="a">--yes</text><text x="420" y="350" class="a">Automatically</text><text x="588" y="350" class="a">respond</text><text x="684" y="350" class="a">yes</text><text x="732" y="350" class="a">to</text><text x="768" y="350" class="a">all</text><text x="816" y="350" class="a">confirmation</text><text x="972" y="350" class="a">prompts</text><text x="72" y="375" class="a">--as-user=&lt;value></text><text x="420" y="375" class="a">Provide</text><text x="516" y="375" class="a">an</text><text x="552" y="375" class="a">ID</text><text x="588" y="375" class="a">for</text><text x="636" y="375" class="a">a</text><text x="660" y="375" class="a">user</text><text x="72" y="400" class="a">--bulk-file-path=&lt;value></text><text x="420" y="400" class="a">File</text><text x="480" y="400" class="a">path</text><text x="540" y="400" class="a">to</text><text x="576" y="400" class="a">bulk</text><text x="636" y="400" class="a">.csv</text><text x="696" y="400" class="a">or</text><text x="732" y="400" class="a">.json</text><text x="804" y="400" class="a">objects</text><text x="72" y="425" class="a">--csv</text><text x="420" y="425" class="a">Output</text><text x="504" y="425" class="a">formatted</text><text x="624" y="425" class="a">CSV</text><text x="72" y="450" class="a">--fields=&lt;value></text><text x="420" y="450" class="a">Comma</text><text x="492" y="450" class="a">separated</text><text x="612" y="450" class="a">list</text><text x="672" y="450" class="a">of</text><text x="708" y="450" class="a">fields</text><text x="792" y="450" class="a">to</text><text x="828" y="450" class="a">show</text><text x="72" y="475" class="a">--json</text><text x="420" y="475" class="a">Output</text><text x="504" y="475" class="a">formatted</text><text x="624" y="475" class="a">JSON</text><text x="72" y="500" class="a">--no-color</text><text x="420" y="500" class="a">Turn</text><text x="480" y="500" class="a">off</text><text x="528" y="500" class="a">colors</text><text x="612" y="500" class="a">for</text><text x="660" y="500" class="a">logging</text><text x="72" y="525" class="a">--save-to-file-path=&lt;value></text><text x="420" y="525" class="a">Override</text><text x="528" y="525" class="a">default</text><text x="624" y="525" class="a">file</text><text x="684" y="525" class="a">path</text><text x="744" y="525" class="a">to</text><text x="780" y="525" class="a">save</text><text x="840" y="525" class="a">report</text><text x="0" y="575" class="a">DESCRIPTION</text><text x="24" y="600" class="a">Get</text><text x="72" y="600" class="a">information</text><text x="216" y="600" class="a">about</text><text x="288" y="600" class="a">a</text><text x="312" y="600" class="a">Box</text><text x="360" y="600" class="a">user</text><text x="0" y="650" class="a">EXAMPLES</text><text x="24" y="675" class="a">$</text><text x="48" y="675" class="a">box</text><text x="96" y="675" class="a">users:get</text><text x="216" y="675" class="a">33333</text></g><g transform="translate(37000)"><text x="0" y="0" class="a">USAGE</text><text x="24" y="25" class="a">$</text><text x="48" y="25" class="a">box</text><text x="96" y="25" class="a">users:get</text><text x="216" y="25" class="a">[ID]</text><text x="276" y="25" class="a">[-t</text><text x="324" y="25" class="a">&lt;value>]</text><text x="432" y="25" class="a">[--as-user</text><text x="564" y="25" class="a">&lt;value>]</text><text x="672" y="25" class="a">[--no-color]</text><text x="828" y="25" class="a">[--json</text><text x="924" y="25" class="a">|</text><text x="948" y="25" class="a">--csv]</text><text x="1032" y="25" class="a">[-s</text><text x="1080" y="25" class="a">|</text><text x="1104" y="25" class="a">--save-to-file-path</text><text x="48" y="50" class="a">&lt;value>]</text><text x="156" y="50" class="a">[--fields</text><text x="276" y="50" class="a">&lt;value>]</text><text x="384" y="50" class="a">[--bulk-file-path</text><text x="600" y="50" class="a">&lt;value>]</text><text x="708" y="50" class="a">[-h]</text><text x="768" y="50" class="a">[-v]</text><text x="828" y="50" class="a">[-y]</text><text x="888" y="50" class="a">[-q]</text><text x="0" y="100" class="a">ARGUMENTS</text><text x="24" y="125" class="a">ID</text><text x="72" y="125" class="a">[default:</text><text x="192" y="125" class="a">me]</text><text x="240" y="125" class="a">ID</text><text x="276" y="125" class="a">of</text><text x="312" y="125" class="a">the</text><text x="360" y="125" class="a">user</text><text x="420" y="125" class="a">to</text><text x="456" y="125" class="a">get;</text><text x="516" y="125" class="a">defaults</text><text x="624" y="125" class="a">to</text><text x="660" y="125" class="a">the</text><text x="708" y="125" class="a">current</text><text x="804" y="125" class="a">user</text><text x="0" y="175" class="a">FLAGS</text><text x="24" y="200" class="a">-h,</text><text x="72" y="200" class="a">--help</text><text x="420" y="200" class="a">Show</text><text x="480" y="200" class="a">CLI</text><text x="528" y="200" class="a">help</text><text x="24" y="225" class="a">-q,</text><text x="72" y="225" class="a">--quiet</text><text x="420" y="225" class="a">Suppress</text><text x="528" y="225" class="a">any</text><text x="576" y="225" class="a">non-error</text><text x="696" y="225" class="a">output</text><text x="780" y="225" class="a">to</text><text x="816" y="225" class="a">stderr</text><text x="24" y="250" class="a">-s,</text><text x="72" y="250" class="a">--save</text><text x="420" y="250" class="a">Save</text><text x="480" y="250" class="a">report</text><text x="564" y="250" class="a">to</text><text x="600" y="250" class="a">default</text><text x="696" y="250" class="a">reports</text><text x="792" y="250" class="a">folder</text><text x="876" y="250" class="a">on</text><text x="912" y="250" class="a">disk</text><text x="24" y="275" class="a">-t,</text><text x="72" y="275" class="a">--token=&lt;value></text><text x="420" y="275" class="a">Provide</text><text x="516" y="275" class="a">a</text><text x="540" y="275" class="a">token</text><text x="612" y="275" class="a">to</text><text x="648" y="275" class="a">perform</text><text x="744" y="275" class="a">this</text><text x="804" y="275" class="a">call</text><text x="24" y="300" class="a">-v,</text><text x="72" y="300" class="a">--verbose</text><text x="420" y="300" class="a">Show</text><text x="480" y="300" class="a">verbose</text><text x="576" y="300" class="a">output,</text><text x="672" y="300" class="a">which</text><text x="744" y="300" class="a">can</text><text x="792" y="300" class="a">be</text><text x="828" y="300" class="a">helpful</text><text x="924" y="300" class="a">for</text><text x="972" y="300" class="a">debugging</text><text x="24" y="325" class="a">-y,</text><text x="72" y="325" class="a">--yes</text><text x="420" y="325" class="a">Automatically</text><text x="588" y="325" class="a">respond</text><text x="684" y="325" class="a">yes</text><text x="732" y="325" class="a">to</text><text x="768" y="325" class="a">all</text><text x="816" y="325" class="a">confirmation</text><text x="972" y="325" class="a">prompts</text><text x="72" y="350" class="a">--as-user=&lt;value></text><text x="420" y="350" class="a">Provide</text><text x="516" y="350" class="a">an</text><text x="552" y="350" class="a">ID</text><text x="588" y="350" class="a">for</text><text x="636" y="350" class="a">a</text><text x="660" y="350" class="a">user</text><text x="72" y="375" class="a">--bulk-file-path=&lt;value></text><text x="420" y="375" class="a">File</text><text x="480" y="375" class="a">path</text><text x="540" y="375" class="a">to</text><text x="576" y="375" class="a">bulk</text><text x="636" y="375" class="a">.csv</text><text x="696" y="375" class="a">or</text><text x="732" y="375" class="a">.json</text><text x="804" y="375" class="a">objects</text><text x="72" y="400" class="a">--csv</text><text x="420" y="400" class="a">Output</text><text x="504" y="400" class="a">formatted</text><text x="624" y="400" class="a">CSV</text><text x="72" y="425" class="a">--fields=&lt;value></text><text x="420" y="425" class="a">Comma</text><text x="492" y="425" class="a">separated</text><text x="612" y="425" class="a">list</text><text x="672" y="425" class="a">of</text><text x="708" y="425" class="a">fields</text><text x="792" y="425" class="a">to</text><text x="828" y="425" class="a">show</text><text x="72" y="450" class="a">--json</text><text x="420" y="450" class="a">Output</text><text x="504" y="450" class="a">formatted</text><text x="624" y="450" class="a">JSON</text><text x="72" y="475" class="a">--no-color</text><text x="420" y="475" class="a">Turn</text><text x="480" y="475" class="a">off</text><text x="528" y="475" class="a">colors</text><text x="612" y="475" class="a">for</text><text x="660" y="475" class="a">logging</text><text x="72" y="500" class="a">--save-to-file-path=&lt;value></text><text x="420" y="500" class="a">Override</text><text x="528" y="500" class="a">default</text><text x="624" y="500" class="a">file</text><text x="684" y="500" class="a">path</text><text x="744" y="500" class="a">to</text><text x="780" y="500" class="a">save</text><text x="840" y="500" class="a">report</text><text x="0" y="550" class="a">DESCRIPTION</text><text x="24" y="575" class="a">Get</text><text x="72" y="575" class="a">information</text><text x="216" y="575" class="a">about</text><text x="288" y="575" class="a">a</text><text x="312" y="575" class="a">Box</text><text x="360" y="575" class="a">user</text><text x="0" y="625" class="a">EXAMPLES</text><text x="24" y="650" class="a">$</text><text x="48" y="650" class="a">box</text><text x="96" y="650" class="a">users:get</text><text x="216" y="650" class="a">33333</text></g></g></g></svg>